# xmcd CD database file
#
# Track frame offsets:
#	150
#	40048
#	73585
#	94995
#	130043
#	156737
#	187259
#	204266
#	229772
#
# Disc length: 3357 seconds
#
# Revision: 0
# Processed by: cddbd v1.5.2PL0 Copyright (c) Steve Scherf et al.
# Submitted via: CDex 1.70beta2
#
DISCID=7e0d1b09
DTITLE=Miho Enokuchi - A Piece Of My Life
DYEAR=2010
DGENRE=Jazz
TTITLE0=En
TTITLE1=Beautiful Eyes
TTITLE2=Old Story
TTITLE3=It's Gone
TTITLE4=Angela's Walk!!
TTITLE5=Hiroshima
TTITLE6=Nostalgia
TTITLE7=A Brownie For A Snowy Day
TTITLE8=A Piece Of My Life
EXTD=YEAR: 2010
EXTT0=
EXTT1=
EXTT2=
EXTT3=
EXTT4=
EXTT5=
EXTT6=
EXTT7=
EXTT8=
PLAYORDER=
